<svg width="100" height="100" viewBox="0 0 100 100" fill="none" xmlns="http://www.w3.org/2000/svg">
<g clip-path="url(#clip0_33_289)">
<path d="M50.2167 2.82254e-05C22.475 -0.0291384 -0.0124948 22.55 5.2087e-06 49.9C0.0125052 77.725 22.8125 99.9209 49.9083 100C77.1375 100.083 100.146 77.8917 100 50.0084C99.9625 43.0709 97.7917 27.6292 92.3333 28.025C84.0833 28.6292 83.3375 45.1917 82.4292 50.5542C80.6917 60.8042 76.8208 71.7209 70.125 79.6792C62.2917 89.5084 50.5542 94.8209 38.2 92.8375C23.4083 90.4875 13.6458 79.1792 10.3667 71.1667C7.22917 63.9875 6.05417 53.825 10.075 44.8167C14.9083 33.2917 25.6333 25.5167 36.2417 21.55C44.6 18.1042 53.3375 16.7542 58.5625 15.8209C69.0458 13.7375 70.4583 9.72503 70.2875 6.86669C70.225 5.81669 69.2208 3.85003 67.0167 2.93753C62.625 1.12086 55.2833 0.00419489 50.2167 2.82254e-05ZM71.4583 5.59169C72.0375 7.25003 71.825 9.13336 70.8417 10.825C69.4875 13.1584 66.7917 15.2 62.9375 16.2C56.1208 17.9834 50.5375 18.5084 44.8542 20.2C39.3875 21.825 30.7 24.4417 22.7042 30.8334C21.5875 34.3417 21.2833 38.7167 21.1667 41.925C21.7917 62.8167 40.1542 78.9417 59.375 78.1C62.9292 77.9459 67.3792 77.0125 71.5083 75.2667C73.845 71.7671 75.7834 68.0175 77.2875 64.0875L77.2958 64.0792V64.0709C79.0625 59.7792 79.8208 56.4209 80.6292 52.4334C81.9625 45.9125 81.4708 40.4334 84.8458 32.6084C85.8917 30.1834 87.8042 27.9709 90.0875 27C91.1292 26.5625 92.2625 26.4459 93.3792 26.7C89.6708 16.4042 80.3958 8.67503 71.4583 5.59169Z" fill="white"/>
</g>
<defs>
<clipPath id="clip0_33_289">
<rect width="100" height="100" fill="white"/>
</clipPath>
</defs>
</svg>
